<mxfile host="app.diagrams.net" modified="2023-11-01T07:43:35.358Z" agent="Mozilla/5.0 (Windows NT 10.0; Win64; x64) AppleWebKit/537.36 (KHTML, like Gecko) Chrome/118.0.0.0 Safari/537.36 Edg/118.0.2088.76" etag="wt64GxdHNbtNO_3O3fh5" version="22.0.8" type="github">
  <diagram id="w0qpV2vSeM4WsdXuYDvo" name="페이지-2">
    <mxGraphModel dx="1755" dy="2201" grid="1" gridSize="10" guides="1" tooltips="1" connect="1" arrows="1" fold="1" page="1" pageScale="1" pageWidth="827" pageHeight="1169" math="0" shadow="0">
      <root>
        <mxCell id="0" />
        <mxCell id="1" parent="0" />
        <mxCell id="iUZAVGl8YqMpMWCNluIf-1" value="Actor" style="shape=umlActor;verticalLabelPosition=bottom;verticalAlign=top;html=1;outlineConnect=0;" parent="1" vertex="1">
          <mxGeometry x="50" y="1210" width="30" height="60" as="geometry" />
        </mxCell>
        <mxCell id="iUZAVGl8YqMpMWCNluIf-4" value="4) 비상상황" style="text;html=1;align=center;verticalAlign=middle;resizable=0;points=[];autosize=1;strokeColor=none;fillColor=none;" parent="1" vertex="1">
          <mxGeometry x="10" y="1160" width="90" height="30" as="geometry" />
        </mxCell>
        <mxCell id="BI4sslR2PnjQIPCocXP0-3" value="개발자" style="text;html=1;align=center;verticalAlign=middle;resizable=0;points=[];autosize=1;strokeColor=none;fillColor=none;" parent="1" vertex="1">
          <mxGeometry y="1330" width="60" height="30" as="geometry" />
        </mxCell>
        <mxCell id="BI4sslR2PnjQIPCocXP0-4" value="Actor" style="shape=umlActor;verticalLabelPosition=bottom;verticalAlign=top;html=1;outlineConnect=0;" parent="1" vertex="1">
          <mxGeometry x="55" y="110" width="30" height="60" as="geometry" />
        </mxCell>
        <mxCell id="BI4sslR2PnjQIPCocXP0-5" value="1) 호출" style="text;html=1;align=center;verticalAlign=middle;resizable=0;points=[];autosize=1;strokeColor=none;fillColor=none;" parent="1" vertex="1">
          <mxGeometry x="30" y="60" width="60" height="30" as="geometry" />
        </mxCell>
        <mxCell id="BI4sslR2PnjQIPCocXP0-6" value="개발자" style="text;html=1;align=center;verticalAlign=middle;resizable=0;points=[];autosize=1;strokeColor=none;fillColor=none;" parent="1" vertex="1">
          <mxGeometry x="25" y="198" width="60" height="30" as="geometry" />
        </mxCell>
        <mxCell id="BI4sslR2PnjQIPCocXP0-7" value="Actor" style="shape=umlActor;verticalLabelPosition=bottom;verticalAlign=top;html=1;outlineConnect=0;" parent="1" vertex="1">
          <mxGeometry x="55" y="400" width="30" height="60" as="geometry" />
        </mxCell>
        <mxCell id="BI4sslR2PnjQIPCocXP0-8" value="2) 층 선택" style="text;html=1;align=center;verticalAlign=middle;resizable=0;points=[];autosize=1;strokeColor=none;fillColor=none;" parent="1" vertex="1">
          <mxGeometry x="20" y="350" width="80" height="30" as="geometry" />
        </mxCell>
        <mxCell id="BI4sslR2PnjQIPCocXP0-9" value="개발자" style="text;html=1;align=center;verticalAlign=middle;resizable=0;points=[];autosize=1;strokeColor=none;fillColor=none;" parent="1" vertex="1">
          <mxGeometry x="25" y="488" width="60" height="30" as="geometry" />
        </mxCell>
        <mxCell id="BI4sslR2PnjQIPCocXP0-19" value="Actor" style="shape=umlActor;verticalLabelPosition=bottom;verticalAlign=top;html=1;outlineConnect=0;" parent="1" vertex="1">
          <mxGeometry x="60" y="700" width="30" height="60" as="geometry" />
        </mxCell>
        <mxCell id="BI4sslR2PnjQIPCocXP0-20" value="3) 문개폐" style="text;html=1;align=center;verticalAlign=middle;resizable=0;points=[];autosize=1;strokeColor=none;fillColor=none;" parent="1" vertex="1">
          <mxGeometry x="30" y="650" width="70" height="30" as="geometry" />
        </mxCell>
        <mxCell id="BI4sslR2PnjQIPCocXP0-21" value="개발자" style="text;html=1;align=center;verticalAlign=middle;resizable=0;points=[];autosize=1;strokeColor=none;fillColor=none;" parent="1" vertex="1">
          <mxGeometry x="30" y="788" width="60" height="30" as="geometry" />
        </mxCell>
        <mxCell id="BI4sslR2PnjQIPCocXP0-22" value="엘레베이터&amp;nbsp;&lt;br&gt;호출버튼을 누른다" style="ellipse;whiteSpace=wrap;html=1;" parent="1" vertex="1">
          <mxGeometry x="130" y="100" width="120" height="80" as="geometry" />
        </mxCell>
        <mxCell id="BI4sslR2PnjQIPCocXP0-23" value="" style="endArrow=classic;html=1;rounded=0;exitX=0.5;exitY=0.5;exitDx=0;exitDy=0;exitPerimeter=0;entryX=0;entryY=0.5;entryDx=0;entryDy=0;" parent="1" source="BI4sslR2PnjQIPCocXP0-4" target="BI4sslR2PnjQIPCocXP0-22" edge="1">
          <mxGeometry width="50" height="50" relative="1" as="geometry">
            <mxPoint x="390" y="460" as="sourcePoint" />
            <mxPoint x="440" y="410" as="targetPoint" />
          </mxGeometry>
        </mxCell>
        <mxCell id="BI4sslR2PnjQIPCocXP0-24" value="엘레베이터가 호출된다" style="ellipse;whiteSpace=wrap;html=1;fillColor=#d5e8d4;strokeColor=#82b366;" parent="1" vertex="1">
          <mxGeometry x="310" y="100" width="120" height="80" as="geometry" />
        </mxCell>
        <mxCell id="BI4sslR2PnjQIPCocXP0-25" value="" style="endArrow=classic;html=1;rounded=0;entryX=0;entryY=0.5;entryDx=0;entryDy=0;exitX=1;exitY=0.5;exitDx=0;exitDy=0;" parent="1" source="BI4sslR2PnjQIPCocXP0-22" target="BI4sslR2PnjQIPCocXP0-24" edge="1">
          <mxGeometry width="50" height="50" relative="1" as="geometry">
            <mxPoint x="250" y="140" as="sourcePoint" />
            <mxPoint x="620" y="410" as="targetPoint" />
          </mxGeometry>
        </mxCell>
        <mxCell id="BI4sslR2PnjQIPCocXP0-26" value="엘레베이터가 호출된 층에 도착한다" style="ellipse;whiteSpace=wrap;html=1;fillColor=#d5e8d4;strokeColor=#82b366;" parent="1" vertex="1">
          <mxGeometry x="490" y="100" width="120" height="80" as="geometry" />
        </mxCell>
        <mxCell id="BI4sslR2PnjQIPCocXP0-27" value="" style="endArrow=classic;html=1;rounded=0;entryX=0;entryY=0.5;entryDx=0;entryDy=0;exitX=1;exitY=0.5;exitDx=0;exitDy=0;" parent="1" source="BI4sslR2PnjQIPCocXP0-24" target="BI4sslR2PnjQIPCocXP0-26" edge="1">
          <mxGeometry width="50" height="50" relative="1" as="geometry">
            <mxPoint x="430" y="140" as="sourcePoint" />
            <mxPoint x="800" y="410" as="targetPoint" />
          </mxGeometry>
        </mxCell>
        <mxCell id="BI4sslR2PnjQIPCocXP0-28" value="엘레베이터의&lt;br&gt;&amp;nbsp;문이 열린다." style="ellipse;whiteSpace=wrap;html=1;" parent="1" vertex="1">
          <mxGeometry x="670" y="100" width="120" height="80" as="geometry" />
        </mxCell>
        <mxCell id="BI4sslR2PnjQIPCocXP0-29" value="" style="endArrow=classic;html=1;rounded=0;entryX=0;entryY=0.5;entryDx=0;entryDy=0;exitX=1;exitY=0.5;exitDx=0;exitDy=0;" parent="1" source="BI4sslR2PnjQIPCocXP0-26" target="BI4sslR2PnjQIPCocXP0-28" edge="1">
          <mxGeometry width="50" height="50" relative="1" as="geometry">
            <mxPoint x="610" y="140" as="sourcePoint" />
            <mxPoint x="980" y="410" as="targetPoint" />
          </mxGeometry>
        </mxCell>
        <mxCell id="BI4sslR2PnjQIPCocXP0-30" value="&amp;lt;&amp;lt;extend&amp;gt;&amp;gt;" style="html=1;verticalAlign=bottom;labelBackgroundColor=none;endArrow=open;endFill=0;dashed=1;rounded=0;exitX=0;exitY=0;exitDx=0;exitDy=0;" parent="1" source="BI4sslR2PnjQIPCocXP0-31" target="BI4sslR2PnjQIPCocXP0-22" edge="1">
          <mxGeometry width="160" relative="1" as="geometry">
            <mxPoint x="340" y="440" as="sourcePoint" />
            <mxPoint x="180" y="220" as="targetPoint" />
          </mxGeometry>
        </mxCell>
        <mxCell id="BI4sslR2PnjQIPCocXP0-31" value="호출버튼을 2초 이내에한 번 더 누른다" style="ellipse;whiteSpace=wrap;html=1;" parent="1" vertex="1">
          <mxGeometry x="260" y="190" width="130" height="80" as="geometry" />
        </mxCell>
        <mxCell id="BI4sslR2PnjQIPCocXP0-32" value="엘레베이터 호출이&amp;nbsp;&lt;br&gt;취소된다" style="ellipse;whiteSpace=wrap;html=1;" parent="1" vertex="1">
          <mxGeometry x="440" y="220" width="120" height="80" as="geometry" />
        </mxCell>
        <mxCell id="BI4sslR2PnjQIPCocXP0-33" value="" style="endArrow=classic;html=1;rounded=0;entryX=0;entryY=0.5;entryDx=0;entryDy=0;exitX=1;exitY=0.5;exitDx=0;exitDy=0;" parent="1" source="BI4sslR2PnjQIPCocXP0-31" target="BI4sslR2PnjQIPCocXP0-32" edge="1">
          <mxGeometry width="50" height="50" relative="1" as="geometry">
            <mxPoint x="390" y="230" as="sourcePoint" />
            <mxPoint x="750" y="500" as="targetPoint" />
            <Array as="points">
              <mxPoint x="420" y="250" />
            </Array>
          </mxGeometry>
        </mxCell>
        <mxCell id="BI4sslR2PnjQIPCocXP0-34" value="엘레베이터 내부에서&amp;nbsp;&lt;br&gt;목적지 층을 선택한다" style="ellipse;whiteSpace=wrap;html=1;" parent="1" vertex="1">
          <mxGeometry x="130" y="390" width="120" height="80" as="geometry" />
        </mxCell>
        <mxCell id="BI4sslR2PnjQIPCocXP0-35" value="" style="endArrow=classic;html=1;rounded=0;entryX=0;entryY=0.5;entryDx=0;entryDy=0;exitX=0.5;exitY=0.5;exitDx=0;exitDy=0;exitPerimeter=0;" parent="1" source="BI4sslR2PnjQIPCocXP0-7" target="BI4sslR2PnjQIPCocXP0-34" edge="1">
          <mxGeometry width="50" height="50" relative="1" as="geometry">
            <mxPoint x="70" y="430" as="sourcePoint" />
            <mxPoint x="440" y="700" as="targetPoint" />
          </mxGeometry>
        </mxCell>
        <mxCell id="BI4sslR2PnjQIPCocXP0-36" value="엘레베이터&amp;nbsp;&lt;br&gt;문이 열린다" style="ellipse;whiteSpace=wrap;html=1;" parent="1" vertex="1">
          <mxGeometry x="140" y="690" width="120" height="80" as="geometry" />
        </mxCell>
        <mxCell id="BI4sslR2PnjQIPCocXP0-37" value="" style="endArrow=classic;html=1;rounded=0;exitX=0.5;exitY=0.5;exitDx=0;exitDy=0;exitPerimeter=0;entryX=0;entryY=0.5;entryDx=0;entryDy=0;" parent="1" source="BI4sslR2PnjQIPCocXP0-19" target="BI4sslR2PnjQIPCocXP0-36" edge="1">
          <mxGeometry width="50" height="50" relative="1" as="geometry">
            <mxPoint x="80" y="730" as="sourcePoint" />
            <mxPoint x="450" y="1000" as="targetPoint" />
          </mxGeometry>
        </mxCell>
        <mxCell id="BI4sslR2PnjQIPCocXP0-38" value="비상상황임을 인지한다" style="ellipse;whiteSpace=wrap;html=1;container=1;" parent="1" vertex="1">
          <mxGeometry x="140" y="1200" width="120" height="80" as="geometry">
            <mxRectangle x="120" y="1210" width="160" height="30" as="alternateBounds" />
          </mxGeometry>
        </mxCell>
        <mxCell id="BI4sslR2PnjQIPCocXP0-39" value="" style="endArrow=classic;html=1;rounded=0;exitX=0.5;exitY=0.5;exitDx=0;exitDy=0;exitPerimeter=0;entryX=0;entryY=0.5;entryDx=0;entryDy=0;" parent="1" source="iUZAVGl8YqMpMWCNluIf-1" target="BI4sslR2PnjQIPCocXP0-38" edge="1">
          <mxGeometry width="50" height="50" relative="1" as="geometry">
            <mxPoint x="70" y="1240" as="sourcePoint" />
            <mxPoint x="440" y="1510" as="targetPoint" />
          </mxGeometry>
        </mxCell>
        <mxCell id="BI4sslR2PnjQIPCocXP0-40" value="&amp;lt;&amp;lt;include&amp;gt;&amp;gt;" style="html=1;verticalAlign=bottom;labelBackgroundColor=none;endArrow=open;endFill=0;dashed=1;rounded=0;exitX=0.5;exitY=1;exitDx=0;exitDy=0;entryX=0.5;entryY=0;entryDx=0;entryDy=0;" parent="1" source="BI4sslR2PnjQIPCocXP0-34" target="BI4sslR2PnjQIPCocXP0-41" edge="1">
          <mxGeometry width="160" relative="1" as="geometry">
            <mxPoint x="340" y="500" as="sourcePoint" />
            <mxPoint x="260" y="500" as="targetPoint" />
            <Array as="points">
              <mxPoint x="150" y="540" />
            </Array>
          </mxGeometry>
        </mxCell>
        <mxCell id="BI4sslR2PnjQIPCocXP0-41" value="현재 층은 &lt;br&gt;선택할 수 없다.&amp;nbsp;" style="ellipse;whiteSpace=wrap;html=1;" parent="1" vertex="1">
          <mxGeometry x="80" y="545" width="130" height="80" as="geometry" />
        </mxCell>
        <mxCell id="BI4sslR2PnjQIPCocXP0-44" value="&amp;lt;&amp;lt;extend&amp;gt;&amp;gt;" style="html=1;verticalAlign=bottom;labelBackgroundColor=none;endArrow=open;endFill=0;dashed=1;rounded=0;exitX=0;exitY=0;exitDx=0;exitDy=0;entryX=0.813;entryY=0.972;entryDx=0;entryDy=0;entryPerimeter=0;" parent="1" source="BI4sslR2PnjQIPCocXP0-45" target="BI4sslR2PnjQIPCocXP0-34" edge="1">
          <mxGeometry width="160" relative="1" as="geometry">
            <mxPoint x="568" y="741" as="sourcePoint" />
            <mxPoint x="460" y="470" as="targetPoint" />
          </mxGeometry>
        </mxCell>
        <mxCell id="BI4sslR2PnjQIPCocXP0-45" value="목적지 층을 한 번 더 누른다" style="ellipse;whiteSpace=wrap;html=1;" parent="1" vertex="1">
          <mxGeometry x="284" y="518" width="130" height="80" as="geometry" />
        </mxCell>
        <mxCell id="BI4sslR2PnjQIPCocXP0-46" value="목적지가&amp;nbsp;&lt;br&gt;취소된다" style="ellipse;whiteSpace=wrap;html=1;" parent="1" vertex="1">
          <mxGeometry x="470" y="545" width="120" height="80" as="geometry" />
        </mxCell>
        <mxCell id="BI4sslR2PnjQIPCocXP0-47" value="" style="endArrow=classic;html=1;rounded=0;entryX=0;entryY=0.5;entryDx=0;entryDy=0;exitX=1;exitY=0.5;exitDx=0;exitDy=0;" parent="1" source="BI4sslR2PnjQIPCocXP0-45" target="BI4sslR2PnjQIPCocXP0-46" edge="1">
          <mxGeometry width="50" height="50" relative="1" as="geometry">
            <mxPoint x="420" y="555" as="sourcePoint" />
            <mxPoint x="780" y="825" as="targetPoint" />
            <Array as="points">
              <mxPoint x="450" y="575" />
            </Array>
          </mxGeometry>
        </mxCell>
        <mxCell id="BI4sslR2PnjQIPCocXP0-53" value="엘레베이터가 운행한다" style="ellipse;whiteSpace=wrap;html=1;" parent="1" vertex="1">
          <mxGeometry x="319" y="390" width="120" height="80" as="geometry" />
        </mxCell>
        <mxCell id="BI4sslR2PnjQIPCocXP0-54" value="" style="endArrow=classic;html=1;rounded=0;entryX=0;entryY=0.5;entryDx=0;entryDy=0;" parent="1" source="BI4sslR2PnjQIPCocXP0-34" target="BI4sslR2PnjQIPCocXP0-53" edge="1">
          <mxGeometry width="50" height="50" relative="1" as="geometry">
            <mxPoint x="259" y="430" as="sourcePoint" />
            <mxPoint x="629" y="700" as="targetPoint" />
          </mxGeometry>
        </mxCell>
        <mxCell id="BI4sslR2PnjQIPCocXP0-55" value="엘레베이터가 목적지 층에 도착한다" style="ellipse;whiteSpace=wrap;html=1;" parent="1" vertex="1">
          <mxGeometry x="499" y="390" width="120" height="80" as="geometry" />
        </mxCell>
        <mxCell id="BI4sslR2PnjQIPCocXP0-56" value="" style="endArrow=classic;html=1;rounded=0;entryX=0;entryY=0.5;entryDx=0;entryDy=0;" parent="1" source="BI4sslR2PnjQIPCocXP0-53" target="BI4sslR2PnjQIPCocXP0-55" edge="1">
          <mxGeometry width="50" height="50" relative="1" as="geometry">
            <mxPoint x="440" y="430" as="sourcePoint" />
            <mxPoint x="809" y="700" as="targetPoint" />
          </mxGeometry>
        </mxCell>
        <mxCell id="BI4sslR2PnjQIPCocXP0-57" value="엘레베이터의&lt;br&gt;&amp;nbsp;문이 열린다." style="ellipse;whiteSpace=wrap;html=1;" parent="1" vertex="1">
          <mxGeometry x="680" y="390" width="119" height="80" as="geometry" />
        </mxCell>
        <mxCell id="BI4sslR2PnjQIPCocXP0-58" value="" style="endArrow=classic;html=1;rounded=0;exitX=1;exitY=0.5;exitDx=0;exitDy=0;" parent="1" source="BI4sslR2PnjQIPCocXP0-55" edge="1">
          <mxGeometry width="50" height="50" relative="1" as="geometry">
            <mxPoint x="619" y="440" as="sourcePoint" />
            <mxPoint x="670" y="430" as="targetPoint" />
          </mxGeometry>
        </mxCell>
        <mxCell id="BI4sslR2PnjQIPCocXP0-59" value="" style="endArrow=none;html=1;rounded=0;strokeWidth=5;" parent="1" edge="1">
          <mxGeometry width="50" height="50" relative="1" as="geometry">
            <mxPoint x="25" y="650" as="sourcePoint" />
            <mxPoint x="820" y="650" as="targetPoint" />
          </mxGeometry>
        </mxCell>
        <mxCell id="BI4sslR2PnjQIPCocXP0-60" value="" style="endArrow=none;html=1;rounded=0;strokeWidth=5;" parent="1" edge="1">
          <mxGeometry width="50" height="50" relative="1" as="geometry">
            <mxPoint x="10" y="320" as="sourcePoint" />
            <mxPoint x="820" y="320" as="targetPoint" />
          </mxGeometry>
        </mxCell>
        <mxCell id="BI4sslR2PnjQIPCocXP0-63" value="엘레베이터의&lt;br&gt;&amp;nbsp;문이 닫힌다." style="ellipse;whiteSpace=wrap;html=1;" parent="1" vertex="1">
          <mxGeometry x="410" y="690" width="119" height="80" as="geometry" />
        </mxCell>
        <mxCell id="BI4sslR2PnjQIPCocXP0-64" value="" style="endArrow=classic;html=1;rounded=0;exitX=1.002;exitY=0.378;exitDx=0;exitDy=0;exitPerimeter=0;entryX=0.041;entryY=0.367;entryDx=0;entryDy=0;entryPerimeter=0;" parent="1" source="BI4sslR2PnjQIPCocXP0-36" target="BI4sslR2PnjQIPCocXP0-63" edge="1">
          <mxGeometry width="50" height="50" relative="1" as="geometry">
            <mxPoint x="439" y="730" as="sourcePoint" />
            <mxPoint x="490.5" y="710" as="targetPoint" />
          </mxGeometry>
        </mxCell>
        <mxCell id="BI4sslR2PnjQIPCocXP0-67" value="&amp;lt;&amp;lt;include&amp;gt;&amp;gt;" style="html=1;verticalAlign=bottom;labelBackgroundColor=none;endArrow=open;endFill=0;dashed=1;rounded=0;entryX=0.5;entryY=0;entryDx=0;entryDy=0;" parent="1" source="BI4sslR2PnjQIPCocXP0-63" target="BI4sslR2PnjQIPCocXP0-68" edge="1">
          <mxGeometry width="160" relative="1" as="geometry">
            <mxPoint x="32" y="797" as="sourcePoint" />
            <mxPoint x="130" y="820" as="targetPoint" />
          </mxGeometry>
        </mxCell>
        <mxCell id="BI4sslR2PnjQIPCocXP0-68" value="엘레베이터 안의 무게가 1200kg 이상일 경우 엘레베이터 문이 닫히지 않는다." style="ellipse;whiteSpace=wrap;html=1;" parent="1" vertex="1">
          <mxGeometry x="300" y="838" width="170" height="80" as="geometry" />
        </mxCell>
        <mxCell id="BI4sslR2PnjQIPCocXP0-69" value="" style="endArrow=none;html=1;rounded=0;strokeWidth=5;" parent="1" edge="1">
          <mxGeometry width="50" height="50" relative="1" as="geometry">
            <mxPoint x="16" y="1080" as="sourcePoint" />
            <mxPoint x="811" y="1080" as="targetPoint" />
          </mxGeometry>
        </mxCell>
        <mxCell id="BI4sslR2PnjQIPCocXP0-70" value="&amp;lt;&amp;lt;include&amp;gt;&amp;gt;" style="html=1;verticalAlign=bottom;labelBackgroundColor=none;endArrow=open;endFill=0;dashed=1;rounded=0;exitX=0.782;exitY=0.935;exitDx=0;exitDy=0;entryX=0.5;entryY=0;entryDx=0;entryDy=0;exitPerimeter=0;" parent="1" source="BI4sslR2PnjQIPCocXP0-63" target="BI4sslR2PnjQIPCocXP0-71" edge="1">
          <mxGeometry width="160" relative="1" as="geometry">
            <mxPoint x="560" y="800" as="sourcePoint" />
            <mxPoint x="660" y="810" as="targetPoint" />
            <Array as="points" />
          </mxGeometry>
        </mxCell>
        <mxCell id="BI4sslR2PnjQIPCocXP0-71" value="문닫힘 버튼을 통해&lt;br&gt;2초 후에 수동적으로 문을 닫을 수 있다." style="ellipse;whiteSpace=wrap;html=1;" parent="1" vertex="1">
          <mxGeometry x="480" y="838" width="130" height="80" as="geometry" />
        </mxCell>
        <mxCell id="BI4sslR2PnjQIPCocXP0-76" value="비상상황&lt;br&gt;버튼을 누른다" style="ellipse;whiteSpace=wrap;html=1;container=1;" parent="1" vertex="1">
          <mxGeometry x="319" y="1200" width="120" height="80" as="geometry">
            <mxRectangle x="319" y="1200" width="120" height="40" as="alternateBounds" />
          </mxGeometry>
        </mxCell>
        <mxCell id="BI4sslR2PnjQIPCocXP0-77" value="" style="endArrow=classic;html=1;rounded=0;entryX=0;entryY=0.5;entryDx=0;entryDy=0;" parent="1" source="BI4sslR2PnjQIPCocXP0-38" target="BI4sslR2PnjQIPCocXP0-76" edge="1">
          <mxGeometry width="50" height="50" relative="1" as="geometry">
            <mxPoint x="245" y="1240" as="sourcePoint" />
            <mxPoint x="620" y="1510" as="targetPoint" />
          </mxGeometry>
        </mxCell>
        <mxCell id="BI4sslR2PnjQIPCocXP0-79" value="&amp;lt;&amp;lt;include&amp;gt;&amp;gt;" style="html=1;verticalAlign=bottom;labelBackgroundColor=none;endArrow=open;endFill=0;dashed=1;rounded=0;exitX=0.575;exitY=1.051;exitDx=0;exitDy=0;entryX=0.5;entryY=0;entryDx=0;entryDy=0;exitPerimeter=0;" parent="1" target="BI4sslR2PnjQIPCocXP0-80" edge="1">
          <mxGeometry width="160" relative="1" as="geometry">
            <mxPoint x="190" y="770" as="sourcePoint" />
            <mxPoint x="432" y="776" as="targetPoint" />
            <Array as="points" />
          </mxGeometry>
        </mxCell>
        <mxCell id="BI4sslR2PnjQIPCocXP0-80" value="문열림 버튼을 통해&lt;br&gt;2초 후에 수동적으로 문을 열어 놓을 수 있다." style="ellipse;whiteSpace=wrap;html=1;" parent="1" vertex="1">
          <mxGeometry x="110" y="800" width="130" height="80" as="geometry" />
        </mxCell>
        <mxCell id="Eb4IQH0eCKcG7H8r5-bc-5" value="&amp;lt;&amp;lt;include&amp;gt;&amp;gt;" style="html=1;verticalAlign=bottom;labelBackgroundColor=none;endArrow=open;endFill=0;dashed=1;rounded=0;entryX=0;entryY=0;entryDx=0;entryDy=0;exitX=1;exitY=1;exitDx=0;exitDy=0;" parent="1" source="BI4sslR2PnjQIPCocXP0-76" target="Eb4IQH0eCKcG7H8r5-bc-6" edge="1">
          <mxGeometry width="160" relative="1" as="geometry">
            <mxPoint x="470" y="1295" as="sourcePoint" />
            <mxPoint x="290" y="1296.66" as="targetPoint" />
          </mxGeometry>
        </mxCell>
        <mxCell id="Eb4IQH0eCKcG7H8r5-bc-6" value="관리자가 비상호출 취소를 누른다" style="ellipse;whiteSpace=wrap;html=1;fillColor=#f8cecc;strokeColor=#b85450;" parent="1" vertex="1">
          <mxGeometry x="460" y="1314.66" width="170" height="80" as="geometry" />
        </mxCell>
        <mxCell id="Eb4IQH0eCKcG7H8r5-bc-7" value="빨간색 끝이 맞는지 아니면 include/extend 처리 해야하는지&lt;br&gt;&amp;nbsp;긴가민가한 애들입니당..." style="rounded=0;whiteSpace=wrap;html=1;" parent="1" vertex="1">
          <mxGeometry x="354" y="1460" width="416" height="180" as="geometry" />
        </mxCell>
        <mxCell id="dQ5gDQTMDjGnMP2RlBHO-1" value="&amp;lt;&amp;lt;include&amp;gt;&amp;gt;" style="html=1;verticalAlign=bottom;labelBackgroundColor=none;endArrow=open;endFill=0;dashed=1;rounded=0;entryX=0.5;entryY=0;entryDx=0;entryDy=0;" edge="1" parent="1" target="dQ5gDQTMDjGnMP2RlBHO-2">
          <mxGeometry width="160" relative="1" as="geometry">
            <mxPoint x="442" y="765" as="sourcePoint" />
            <mxPoint x="130" y="820" as="targetPoint" />
          </mxGeometry>
        </mxCell>
        <mxCell id="dQ5gDQTMDjGnMP2RlBHO-2" value="엘레베이터 안의 무게가 1200kg 이상일 경우 엘레베이터 문이 닫히지 않는다." style="ellipse;whiteSpace=wrap;html=1;" vertex="1" parent="1">
          <mxGeometry x="300" y="838" width="170" height="80" as="geometry" />
        </mxCell>
        <mxCell id="dQ5gDQTMDjGnMP2RlBHO-3" value="&amp;lt;&amp;lt;include&amp;gt;&amp;gt;" style="html=1;verticalAlign=bottom;labelBackgroundColor=none;endArrow=open;endFill=0;dashed=1;rounded=0;exitX=0.924;exitY=0.75;exitDx=0;exitDy=0;entryX=0;entryY=0;entryDx=0;entryDy=0;exitPerimeter=0;" edge="1" parent="1" target="dQ5gDQTMDjGnMP2RlBHO-4" source="BI4sslR2PnjQIPCocXP0-63">
          <mxGeometry width="160" relative="1" as="geometry">
            <mxPoint x="642" y="700" as="sourcePoint" />
            <mxPoint x="799" y="745" as="targetPoint" />
            <Array as="points" />
          </mxGeometry>
        </mxCell>
        <mxCell id="dQ5gDQTMDjGnMP2RlBHO-4" value="문 닫힘 방지 센서에 장애물이 인식되면 문이 닫히지 않는다" style="ellipse;whiteSpace=wrap;html=1;" vertex="1" parent="1">
          <mxGeometry x="619" y="773" width="130" height="80" as="geometry" />
        </mxCell>
        <mxCell id="dQ5gDQTMDjGnMP2RlBHO-5" value="&amp;lt;&amp;lt;extend&amp;gt;&amp;gt;" style="html=1;verticalAlign=bottom;labelBackgroundColor=none;endArrow=open;endFill=0;dashed=1;rounded=0;exitX=0;exitY=1;exitDx=0;exitDy=0;entryX=0.5;entryY=0;entryDx=0;entryDy=0;" edge="1" parent="1" source="dQ5gDQTMDjGnMP2RlBHO-6" target="BI4sslR2PnjQIPCocXP0-26">
          <mxGeometry width="160" relative="1" as="geometry">
            <mxPoint x="658" y="241" as="sourcePoint" />
            <mxPoint x="550" y="-30" as="targetPoint" />
          </mxGeometry>
        </mxCell>
        <mxCell id="dQ5gDQTMDjGnMP2RlBHO-6" value="진행방향이 같을 경우&lt;br&gt;목적지를 경유한다" style="ellipse;whiteSpace=wrap;html=1;" vertex="1" parent="1">
          <mxGeometry x="578" y="-9" width="130" height="80" as="geometry" />
        </mxCell>
        <mxCell id="dQ5gDQTMDjGnMP2RlBHO-7" value="&amp;lt;&amp;lt;extend&amp;gt;&amp;gt;" style="html=1;verticalAlign=bottom;labelBackgroundColor=none;endArrow=open;endFill=0;dashed=1;rounded=0;exitX=0.5;exitY=1;exitDx=0;exitDy=0;entryX=1;entryY=0;entryDx=0;entryDy=0;" edge="1" parent="1" source="dQ5gDQTMDjGnMP2RlBHO-8" target="BI4sslR2PnjQIPCocXP0-24">
          <mxGeometry width="160" relative="1" as="geometry">
            <mxPoint x="510" y="230" as="sourcePoint" />
            <mxPoint x="547.5599999999998" y="120.0499999999998" as="targetPoint" />
          </mxGeometry>
        </mxCell>
        <mxCell id="dQ5gDQTMDjGnMP2RlBHO-8" value="진행방향이 다를 경우&lt;br&gt;목적지를 경유한다" style="ellipse;whiteSpace=wrap;html=1;" vertex="1" parent="1">
          <mxGeometry x="354" y="-20" width="130" height="80" as="geometry" />
        </mxCell>
      </root>
    </mxGraphModel>
  </diagram>
</mxfile>
